<?xml version="1.0" encoding="UTF-8" standalone="no"?>
<!-- Created with Inkscape (http://www.inkscape.org/) -->

<svg
   xmlns:dc="http://purl.org/dc/elements/1.1/"
   xmlns:cc="http://creativecommons.org/ns#"
   xmlns:rdf="http://www.w3.org/1999/02/22-rdf-syntax-ns#"
   xmlns:svg="http://www.w3.org/2000/svg"
   xmlns="http://www.w3.org/2000/svg"
   xmlns:sodipodi="http://sodipodi.sourceforge.net/DTD/sodipodi-0.dtd"
   xmlns:inkscape="http://www.inkscape.org/namespaces/inkscape"
   width="500"
   height="100"
   id="svg2"
   version="1.1"
   inkscape:version="0.47 "
   sodipodi:docname="Neues Dokument 1">
  <defs
     id="defs4">
    <inkscape:perspective
       sodipodi:type="inkscape:persp3d"
       inkscape:vp_x="0 : 526.18109 : 1"
       inkscape:vp_y="0 : 1000 : 0"
       inkscape:vp_z="744.09448 : 526.18109 : 1"
       inkscape:persp3d-origin="372.04724 : 350.78739 : 1"
       id="perspective10" />
  </defs>
  <sodipodi:namedview
     id="base"
     pagecolor="#ffffff"
     bordercolor="#666666"
     borderopacity="1.0"
     inkscape:pageopacity="0.0"
     inkscape:pageshadow="2"
     inkscape:zoom="1"
     inkscape:cx="350"
     inkscape:cy="165.30818"
     inkscape:document-units="px"
     inkscape:current-layer="layer1"
     showgrid="false"
     width="301.18px"
     inkscape:window-width="1024"
     inkscape:window-height="712"
     inkscape:window-x="-4"
     inkscape:window-y="-4"
     inkscape:window-maximized="1">
    <inkscape:grid
       type="xygrid"
       id="grid2816"
       empspacing="5"
       visible="true"
       enabled="true"
       snapvisiblegridlinesonly="true" />
  </sodipodi:namedview>
  <metadata
     id="metadata7">
    <rdf:RDF>
      <cc:Work
         rdf:about="">
        <dc:format>image/svg+xml</dc:format>
        <dc:type
           rdf:resource="http://purl.org/dc/dcmitype/StillImage" />
        <dc:title></dc:title>
      </cc:Work>
    </rdf:RDF>
  </metadata>
  <g
     inkscape:label="Ebene 1"
     inkscape:groupmode="layer"
     id="layer1"
     transform="translate(0,-952.3622)">
    <g
       transform="matrix(0.95161703,0,0,1.0508429,-226,-109)"
       style="font-size:89.16356659px;font-style:normal;font-variant:normal;font-weight:normal;font-stretch:normal;text-align:start;line-height:100%;writing-mode:lr-tb;text-anchor:start;fill:#000000;fill-opacity:1;stroke:none;font-family:BBC Striped Channel Logos;-inkscape-font-specification:BBC Striped Channel Logos"
       id="text2826">
      <path
         d="m 480.64344,1034.3936 c 0.0597,0.058 0.20842,0.087 0.44625,0.087 0.29731,10e-5 0.50592,0.03 0.62585,0.09 0.0579,0.06 0.20569,0.09 0.44353,0.09 0.2973,10e-5 0.47599,0.03 0.53605,0.09 0.11953,10e-5 0.22383,0.029 0.31292,0.088 0.0887,0.059 0.19209,0.088 0.3102,0.088 0.17939,0.06 0.32859,0.1048 0.44761,0.1347 0.11862,0.03 0.23699,0.075 0.3551,0.1347 0.17939,0 0.32859,0.015 0.44761,0.043 0.11862,0.029 0.26692,0.073 0.4449,0.1333 l 0.17686,0 c 0.17939,0.1779 0.41794,0.2667 0.71564,0.2667 0.17758,0.06 0.35581,0.1198 0.53469,0.1796 0.17848,0.06 0.35671,0.09 0.53469,0.09 0.11771,0.058 0.25104,0.117 0.39999,0.1768 0.14855,0.06 0.28279,0.1198 0.40272,0.1796 0.17757,0.06 0.34084,0.1044 0.48979,0.1334 0.14855,0.029 0.31181,0.074 0.48979,0.1333 0.5948,0.2975 1.04105,0.4762 1.33876,0.536 0.47507,0.2377 0.83153,0.401 1.06937,0.4898 0.23744,0.089 0.35626,0.1334 0.35646,0.1334 l 0,8.2937 -0.8925,-0.3592 c -0.11812,-0.1179 -0.26642,-0.2362 -0.4449,-0.3551 -0.17888,-0.1188 -0.41698,-0.2671 -0.71427,-0.4449 -0.11812,-0.06 -0.25145,-0.1047 -0.4,-0.1347 -0.14895,-0.03 -0.28319,-0.1047 -0.40272,-0.2245 -0.41561,-0.058 -0.802,-0.2357 -1.15917,-0.5332 -0.29589,-0.1197 -0.563,-0.239 -0.80135,-0.3579 -0.23874,-0.1187 -0.50586,-0.2371 -0.80135,-0.3551 -0.17979,-0.06 -0.37344,-0.1341 -0.58094,-0.2231 -0.20791,-0.089 -0.43058,-0.1632 -0.66802,-0.2231 -2e-4,0 -0.0596,-0.015 -0.17823,-0.045 -0.11902,-0.03 -0.29725,-0.1038 -0.53469,-0.2218 -0.11992,-0.06 -0.26867,-0.1196 -0.44625,-0.1796 -0.17798,-0.06 -0.38568,-0.1196 -0.62312,-0.1795 -0.0601,-0.058 -0.20882,-0.087 -0.44626,-0.087 -0.23783,0 -0.38658,-0.03 -0.44625,-0.09 -0.2977,-0.1197 -0.58023,-0.2091 -0.84761,-0.2681 -0.26777,-0.059 -0.5503,-0.1183 -0.84761,-0.1782 -0.11811,-0.06 -0.32581,-0.09 -0.62312,-0.09 -0.17797,10e-5 -0.38613,-0.029 -0.62448,-0.088 -0.23874,-0.059 -0.47683,-0.088 -0.71428,-0.088 -0.35574,1e-4 -0.62331,-0.03 -0.80271,-0.09 -0.29588,0 -0.56254,-0.06 -0.79999,-0.1796 l -1.42856,0 -0.44625,0 -0.97958,0 c -0.23783,10e-5 -0.53533,0.06 -0.89251,0.1796 -0.47546,0 -0.80199,0.03 -0.97958,0.09 -0.17796,1e-4 -0.35619,0.015 -0.53468,0.045 -0.17887,0.03 -0.32808,0.045 -0.44762,0.045 -0.1181,0.058 -0.29587,0.087 -0.53333,0.087 -0.17977,10e-5 -0.32852,0.03 -0.44625,0.09 -0.06,0.06 -0.2088,0.09 -0.44625,0.09 -0.1181,10e-5 -0.23692,0.059 -0.35646,0.1769 -0.17796,0.06 -0.34122,0.1048 -0.48979,0.1347 -0.14893,0.03 -0.3122,0.075 -0.48979,0.1347 -0.11991,0.058 -0.26911,0.102 -0.44761,0.1319 -0.17887,0.03 -0.32717,0.1048 -0.4449,0.2245 -0.23782,0.06 -0.53532,0.1488 -0.8925,0.2667 -1.72352,0.7728 -3.41783,1.9918 -5.08294,3.657 l -0.26666,0.2667 -0.62312,0.6231 c -0.1199,0.2377 -0.26865,0.4164 -0.44625,0.5361 -0.1199,0.2975 -0.26866,0.5501 -0.44626,0.7578 -0.17795,0.2077 -0.3267,0.4304 -0.44625,0.668 -0.06,0.1198 -0.11945,0.2241 -0.17823,0.3129 -0.0591,0.089 -0.11854,0.1933 -0.17823,0.3129 -0.11808,0.1779 -0.2369,0.5044 -0.35646,0.9796 -0.17795,0.1778 -0.2818,0.4005 -0.31156,0.6681 -0.0301,0.2676 -0.13396,0.5501 -0.31156,0.8476 -0.1199,0.1778 -0.23872,0.5043 -0.35646,0.9796 -0.06,0.1796 -0.09,0.4181 -0.0898,0.7156 -1.7e-4,0.2377 -0.0301,0.4454 -0.0898,0.6231 -0.06,0.2377 -0.09,0.5642 -0.0898,0.9796 -1.7e-4,0.1796 -0.0591,0.4472 -0.17687,0.8027 l 0,0.6259 0,0.4462 c -1.7e-4,0.118 0.0588,0.2368 0.17687,0.3565 l 0,0.7129 c 0.0597,0.3556 0.10459,0.7415 0.13469,1.1578 0.0298,0.4164 0.10368,0.8331 0.22177,1.2503 0.0597,0.118 0.0896,0.2958 0.0898,0.5334 -1.7e-4,0.1197 0.0597,0.2385 0.17959,0.3564 0.11774,0.2377 0.19166,0.4608 0.22177,0.6694 0.0298,0.2086 0.10459,0.4608 0.22448,0.7565 0.11774,0.1197 0.23656,0.3583 0.35646,0.7156 0.11774,0.1179 0.20663,0.2662 0.26667,0.4449 0.0597,0.1787 0.14903,0.3274 0.26802,0.4462 0.11865,0.1189 0.23747,0.2971 0.35646,0.5347 0.11864,0.2377 0.26694,0.4454 0.44489,0.6231 0.0597,0.1796 0.13407,0.3139 0.22313,0.4027 0.0887,0.089 0.19302,0.1924 0.31292,0.3102 0.11774,0.1797 0.47419,0.566 1.06937,1.1592 l 0.0898,0.09 0.0871,0 0.0898,0.2694 0.35646,0.1769 c 0.11955,0.1197 0.22385,0.224 0.31292,0.3129 0.0887,0.089 0.19302,0.1633 0.31292,0.2231 0.11773,0.118 0.2361,0.2214 0.3551,0.3102 0.11864,0.089 0.23791,0.1932 0.35782,0.3129 0.17759,0.06 0.3853,0.1488 0.62312,0.2667 0.11955,0.1796 0.32816,0.3284 0.62584,0.4463 0.1776,0.1197 0.37034,0.224 0.57822,0.3129 0.20753,0.089 0.43021,0.1932 0.66802,0.3129 0.11955,0.058 0.19438,0.1021 0.22449,0.132 0.0297,0.03 0.10367,0.075 0.22177,0.1347 0.23746,0 0.38621,0.03 0.44625,0.09 0.11955,0.1179 0.17941,0.1768 0.17959,0.1768 0.17759,0 0.29641,0.03 0.35646,0.09 1.01023,0.2975 2.22836,0.595 3.65438,0.8925 0.41704,0.058 0.80388,0.117 1.16053,0.1769 0.35627,0.06 0.71227,0.1197 1.06801,0.1796 l 1.87209,0 0.9823,0 c 0.17758,0 0.40026,-0.015 0.66802,-0.045 0.26738,-0.03 0.54991,-0.045 0.84761,-0.045 0.35717,-0.1197 0.56488,-0.1796 0.62312,-0.1796 0.29731,0 0.50592,-0.029 0.62584,-0.087 l 0.53333,0 c 0.71454,-0.1197 1.50273,-0.2984 2.3646,-0.5361 0.86147,-0.2376 1.76758,-0.5351 2.71833,-0.8925 0.47508,-0.1777 0.96532,-0.356 1.47073,-0.5347 0.50501,-0.1786 1.02519,-0.4158 1.56053,-0.7115 0.5948,-0.2394 1.18935,-0.5374 1.78365,-0.8939 0.59389,-0.3564 1.15851,-0.6834 1.69386,-0.9809 l 0.62584,-0.4435 0.26666,-0.09 0,8.5604 c 0.0597,0 -0.0891,0.059 -0.44625,0.1769 -0.11993,0.06 -0.26868,0.1342 -0.44625,0.2231 -0.17798,0.089 -0.32673,0.1633 -0.44625,0.2231 -0.23785,0.1179 -0.43104,0.2068 -0.57959,0.2667 -0.14895,0.06 -0.34215,0.1496 -0.57958,0.2694 -0.2959,0.1179 -0.54805,0.2068 -0.75646,0.2666 -0.20882,0.06 -0.40201,0.1189 -0.57958,0.1769 -0.23784,0.1197 -0.41607,0.2091 -0.53469,0.268 -0.11902,0.059 -0.17843,0.088 -0.17823,0.088 l -0.44625,0.09 c -0.35757,0.1796 -0.77389,0.3284 -1.24897,0.4463 -0.83284,0.2376 -1.4868,0.4308 -1.96188,0.5796 -0.47547,0.1487 -0.92082,0.2231 -1.33604,0.2231 -0.23783,0 -0.41652,0.03 -0.53605,0.09 -0.29769,0.06 -0.62467,0.1043 -0.98094,0.1333 -0.35665,0.029 -0.68363,0.1034 -0.98094,0.2231 -0.17797,0.06 -0.41561,0.09 -0.71291,0.09 l -0.62313,0 -0.35645,0.087 c -0.2977,0.06 -0.62513,0.09 -0.98231,0.09 -0.29769,0 -0.59519,0 -0.8925,0 l -1.95916,0 -0.53605,0 -1.15917,0 c -0.29769,-0.06 -0.68408,-0.09 -1.15917,-0.09 -0.47546,0 -1.0106,-0.044 -1.60542,-0.1333 -0.59519,-0.089 -1.13033,-0.1923 -1.60543,-0.3102 -0.41559,-0.1197 -0.83146,-0.224 -1.2476,-0.3129 -0.4165,-0.089 -0.83237,-0.1932 -1.2476,-0.3129 -0.17796,-0.06 -0.37115,-0.1043 -0.57959,-0.1334 -0.20879,-0.029 -0.43192,-0.1034 -0.66938,-0.2231 -0.17795,-0.06 -0.37115,-0.1342 -0.57958,-0.2231 -0.2088,-0.089 -0.40199,-0.1633 -0.57959,-0.2232 -0.53532,-0.2376 -1.05549,-0.4603 -1.56053,-0.668 -0.50538,-0.2077 -0.96569,-0.4603 -1.38093,-0.7578 -0.47545,-0.2376 -0.90629,-0.4902 -1.2925,-0.7578 -0.38657,-0.2676 -0.72851,-0.5202 -1.02584,-0.7578 -0.1199,-0.1197 -0.25414,-0.224 -0.40272,-0.3129 -0.14892,-0.089 -0.28225,-0.1932 -0.39999,-0.313 -0.23781,-0.058 -0.47545,-0.2657 -0.71292,-0.6231 -0.23781,-0.1179 -0.431,-0.2512 -0.57958,-0.4 -0.14893,-0.1487 -0.31219,-0.283 -0.48979,-0.4027 l -0.0898,-0.1769 c -0.23781,-0.1795 -0.431,-0.3582 -0.57958,-0.536 -0.14892,-0.1778 -0.31219,-0.3855 -0.48979,-0.6231 -0.1199,-0.1796 -0.2691,-0.3433 -0.44762,-0.4912 -0.17885,-0.1478 -0.32715,-0.3414 -0.44489,-0.5809 -0.11989,-0.1179 -0.23917,-0.2807 -0.35782,-0.4884 -0.11899,-0.2077 -0.23735,-0.3715 -0.3551,-0.4912 -0.35753,-0.4753 -0.56614,-0.8018 -0.62584,-0.9796 -0.11808,-0.1197 -0.23644,-0.2834 -0.3551,-0.4911 -0.11898,-0.2077 -0.23826,-0.4304 -0.35782,-0.668 -0.17794,-0.3574 -0.37113,-0.7143 -0.57958,-1.0708 -0.20878,-0.3564 -0.37204,-0.7133 -0.48979,-1.0707 -0.11989,-0.2975 -0.20923,-0.5501 -0.26803,-0.7578 -0.0591,-0.2077 -0.14846,-0.4304 -0.26802,-0.668 -0.0582,-0.4753 -0.20606,-0.8916 -0.44353,-1.249 -1.7e-4,-0.2376 -0.06,-0.5941 -0.17959,-1.0694 -1.7e-4,-0.1197 -0.0151,-0.209 -0.0449,-0.268 -0.0301,-0.059 -0.0451,-0.1483 -0.0449,-0.268 -0.06,-0.1179 -0.0899,-0.2957 -0.0898,-0.5333 -1.6e-4,-0.2975 -0.0292,-0.5352 -0.0871,-0.713 l 0,-0.1796 c -1.6e-4,-0.2376 -0.0301,-0.4308 -0.0898,-0.5795 -0.06,-0.1488 -0.09,-0.342 -0.0898,-0.5796 l 0,-1.0694 0,-1.3388 c 0.11956,-0.3555 0.17942,-0.6521 0.17958,-0.8898 -1.6e-4,-0.4171 0.0289,-0.7147 0.0871,-0.8925 0.11956,-0.9505 0.29824,-1.8421 0.53605,-2.6748 0.23747,-0.8326 0.50504,-1.6652 0.80271,-2.4979 0.23747,-0.653 0.50504,-1.2766 0.80271,-1.8708 0.29734,-0.594 0.62386,-1.1886 0.97958,-1.7836 0.0597,-0.1777 0.14949,-0.3854 0.26938,-0.6231 0.23748,-0.06 0.44518,-0.3274 0.62313,-0.8027 0.11956,-0.1197 0.25334,-0.2689 0.40135,-0.4476 0.14768,-0.1786 0.3114,-0.3569 0.49115,-0.5347 0.11775,-0.2376 0.35539,-0.5351 0.71292,-0.8925 0.11774,-0.1179 0.25107,-0.2662 0.39999,-0.4449 0.14859,-0.1786 0.28283,-0.3269 0.40272,-0.4449 0.11774,-0.1795 0.26604,-0.3432 0.44489,-0.4911 0.17852,-0.1478 0.38668,-0.3115 0.62449,-0.4912 0.11774,-0.1178 0.26604,-0.2512 0.44489,-0.4 0.17851,-0.1487 0.38667,-0.3119 0.62448,-0.4898 0.11956,-0.1196 0.22386,-0.209 0.31292,-0.268 0.0887,-0.059 0.19303,-0.1482 0.31292,-0.268 0.23747,-0.06 0.50413,-0.2385 0.79999,-0.5361 0.23928,-0.1178 0.46286,-0.2512 0.67074,-0.4 0.20754,-0.1487 0.46014,-0.282 0.75782,-0.4 0.41524,-0.2394 0.89052,-0.4779 1.42583,-0.7156 0.29733,-0.1777 0.62431,-0.341 0.98094,-0.4898 0.35628,-0.1487 0.68326,-0.3119 0.98094,-0.4898 0.65288,-0.2974 1.35128,-0.5351 2.09522,-0.7129 0.74357,-0.1777 1.50184,-0.3564 2.2748,-0.536 0.11773,-0.06 0.26557,-0.09 0.44353,-0.09 0.17941,0 0.32816,-0.029 0.44626,-0.087 0.11954,0 0.20888,-0.015 0.26802,-0.045 0.0588,-0.03 0.11818,-0.045 0.17823,-0.045 l 0.53605,-0.09 0.35645,0 0.26667,0 c 0.35718,-0.1179 0.56489,-0.1769 0.62312,-0.1769 0.29732,0 0.476,-0.03 0.53605,-0.09 l 0.80271,0 c 0.17759,-0.06 0.44516,-0.09 0.80271,-0.09 l 0.71292,0 0.71291,0 0.89251,0 c 0.47509,0 0.80161,0.03 0.97958,0.09 l 0.9823,0 c 0.17759,0.06 0.44516,0.09 0.80271,0.09 0.17759,0 0.44516,0.059 0.80272,0.1769 l 0.26666,0.09 c 0.47508,0 0.80161,0.03 0.97958,0.09 z m 85.15273,0.1769 0,44.8511 -5.52919,0 -30.13569,-34.5955 0,34.5955 -5.97544,0 0,-44.8511 5.17273,0 30.40508,34.7751 0,-34.7751 z m 35.39822,0 0,5.7958 -18.99297,0 0,13.5536 18.36713,0 0,5.7959 -18.36713,0 0,13.997 19.61609,0 0,5.7088 -26.12486,0 0,-44.8511 z m 71.15289,0 -18.28005,45.2946 -1.24897,0 -14.71002,-36.7342 -14.97942,36.7342 -1.24896,0 -18.19026,-45.2946 6.41897,0 12.4842,30.9411 12.48149,-30.9411 6.15231,0 12.39441,30.9411 12.30461,-30.9411 z m 26.39153,2.4979 0,7.3985 c -1.90334,-1.8411 -3.76136,-3.0887 -5.57409,-3.7427 -1.81353,-0.654 -3.49288,-0.9809 -5.03803,-0.981 -2.07929,1e-4 -3.77269,0.5053 -5.08021,1.5156 -1.30832,1.0105 -1.96228,2.2885 -1.96188,3.834 -4e-4,1.4258 0.47488,2.644 1.42583,3.6543 0.95016,1.0105 2.15377,1.9615 3.61084,2.8531 1.45627,0.8916 3.01679,1.7982 4.68158,2.7197 1.66397,0.9216 3.22449,1.9918 4.68157,3.2108 1.45627,1.2191 2.65988,2.6608 3.61085,4.3252 0.95014,1.6644 1.42541,3.6847 1.42583,6.0611 -4.2e-4,1.7832 -0.3274,3.4181 -0.98094,4.9047 -0.65437,1.4866 -1.53101,2.7651 -2.6299,3.8353 -1.09972,1.0703 -2.42215,1.9025 -3.9673,2.4966 -1.54597,0.5941 -3.21034,0.8911 -4.99314,0.8911 -2.49651,0 -4.75544,-0.327 -6.77679,-0.9809 -2.02214,-0.654 -3.98356,-1.6938 -5.88428,-3.1197 l 0,-8.1142 c 3.38823,4.2794 7.34101,6.419 11.85836,6.419 2.49571,0 4.33832,-0.624 5.52782,-1.8721 1.1887,-1.248 1.78325,-2.4961 1.78366,-3.7442 -4.1e-4,-1.5455 -0.47614,-2.8979 -1.4272,-4.057 -0.95187,-1.1592 -2.15548,-2.244 -3.61084,-3.2544 -1.45617,-1.0104 -3.01624,-1.9913 -4.68022,-2.9428 -1.66477,-0.9515 -3.2253,-2.0068 -4.68157,-3.166 -1.45707,-1.1591 -2.66068,-2.4816 -3.61084,-3.9673 -0.95095,-1.4857 -1.42623,-3.2689 -1.42584,-5.3496 -3.9e-4,-3.6262 1.24767,-6.5241 3.74418,-8.6938 2.49572,-2.1695 5.79454,-3.2543 9.89648,-3.2543 3.38821,0 6.7469,1.0404 10.07607,3.121 z m -395.35041,-2.5877 14.62024,0 c 1.96275,0 3.64255,0.2082 5.03939,0.6245 1.39677,0.4163 2.57045,0.8621 3.52105,1.3374 0.95051,0.4753 1.64892,0.9361 2.09521,1.3823 0.44621,0.4463 0.66934,0.6694 0.66938,0.6693 0.0598,0.06 0.32739,0.3575 0.80271,0.8926 0.47524,0.5351 0.98045,1.3968 1.51563,2.585 0.5351,1.1882 0.80267,2.555 0.80271,4.1005 -4e-5,1.1901 -0.11886,2.2159 -0.35646,3.0776 -0.23768,0.8617 -0.50525,1.5746 -0.80271,2.1387 -0.29754,0.5642 -0.59505,1.01 -0.8925,1.3374 -0.29755,0.3275 -0.50526,0.5801 -0.62312,0.7579 -0.71296,0.6549 -1.3964,1.1605 -2.05032,1.5169 -0.654,0.3565 -0.98098,0.5348 -0.98094,0.5347 -4e-5,10e-5 0.22263,0.059 0.66802,0.1783 0.4453,0.1188 0.97999,0.312 1.60406,0.5795 0.62399,0.2676 1.32239,0.6391 2.09521,1.1143 0.77274,0.4753 1.51649,1.0994 2.23127,1.8721 1.12828,1.1302 1.91557,2.3343 2.36188,3.6122 0.4462,1.278 0.68384,2.2884 0.71291,3.0313 0.029,0.7428 0.0435,1.1741 0.0435,1.2938 -5e-5,0 -5e-5,0.2377 0,0.7129 -5e-5,0.4753 -0.0889,1.0994 -0.26666,1.8721 -0.17783,0.7728 -0.50436,1.62 -0.97958,2.5415 -0.47533,0.9215 -1.18915,1.8576 -2.14147,2.8081 -1.12838,1.1882 -2.43585,2.0798 -3.92241,2.6748 -1.48664,0.595 -2.8839,1.0113 -4.19178,1.249 -1.30796,0.2376 -2.40772,0.3714 -3.29929,0.4013 -0.89163,0.03 -1.33743,0.045 -1.33739,0.045 l -16.93858,0 z m -17.47734,-8.8271 0,62.4155 66.33663,0 0,-62.4155 z m 25.58881,15.7821 5.26252,0 0.44625,0 c 0.29566,10e-5 0.5333,0.03 0.71292,0.09 1.1283,0 2.25754,0.2377 3.38772,0.7129 0.71288,0.2976 1.24802,0.625 1.60542,0.9823 0.11787,0.1778 0.25121,0.3561 0.39999,0.5347 0.14872,0.1787 0.28296,0.3869 0.40272,0.6244 0.11788,0.4155 0.22128,0.8014 0.3102,1.1578 0.0888,0.3565 0.16323,0.6536 0.22313,0.8912 l 0,0.536 0,0.1769 c -4e-5,0.1796 -0.03,0.3284 -0.0898,0.4463 -4e-5,0.4172 -0.14788,1.0122 -0.44353,1.785 -0.11977,0.4753 -0.47668,1.01 -1.07074,1.604 -0.59413,0.5942 -1.33743,1.04 -2.22991,1.3375 -0.11794,0.06 -0.2218,0.1193 -0.31156,0.1782 -0.0898,0.059 -0.19368,0.088 -0.31156,0.088 -0.59503,0.1198 -1.16011,0.2091 -1.69521,0.268 -0.53518,0.059 -0.98052,0.1184 -1.33604,0.1783 l -0.9823,0 -0.44626,0 -3.83396,0 z m 0,18.7263 7.66794,0 0.80271,0 c 0.47705,0 0.80449,0.029 0.9823,0.087 0.11788,0 0.2961,0.015 0.53469,0.045 0.23851,0.03 0.50562,0.075 0.80135,0.1347 0.47524,0.06 0.89156,0.1492 1.24896,0.268 0.35733,0.1189 0.71379,0.2372 1.06938,0.3551 0.5351,0.2976 1.07024,0.5651 1.60542,0.8027 l 0.62584,0.6259 c 0.11787,0.1179 0.1918,0.2213 0.22177,0.3102 0.0299,0.089 0.0449,0.1333 0.0449,0.1333 0.5351,0.5352 0.86163,1.1601 0.97958,1.8748 0.11968,0.3556 0.17955,0.5932 0.17959,0.7129 l 0,0.4463 0,0.2666 0,0.4463 c -0.0599,0.2975 -0.13428,0.6689 -0.22313,1.1143 -0.0889,0.4453 -0.28212,0.9056 -0.57958,1.3809 -0.11977,0.1778 -0.23904,0.3411 -0.35782,0.4898 -0.11886,0.1488 -0.23723,0.3129 -0.3551,0.4925 -0.3574,0.3556 -0.77373,0.6522 -1.24896,0.8898 -0.47532,0.2376 -0.98053,0.4463 -1.51563,0.6258 -0.53518,0.2377 -1.07032,0.386 -1.60543,0.4449 -0.53517,0.059 -1.01045,0.1184 -1.42583,0.1783 -0.17781,0.06 -0.41545,0.09 -0.71292,0.09 l -0.44625,0 -0.44625,0 -7.84753,0 z m 68.30123,-25.6813 14.62296,0 c 1.96086,0 3.63975,0.2082 5.03667,0.6245 1.39669,0.4163 2.57083,0.8621 3.52241,1.3374 0.95134,0.4753 1.64975,0.9361 2.09521,1.3823 0.44523,0.4463 0.6679,0.6694 0.66802,0.6693 0.0597,0.06 0.32731,0.3575 0.80271,0.8926 0.47516,0.5351 0.98037,1.3968 1.51563,2.585 0.53502,1.1882 0.80259,2.555 0.80271,4.1005 -1.2e-4,1.1901 -0.11894,2.2159 -0.35646,3.0776 -0.23776,0.8617 -0.50533,1.5746 -0.80271,2.1387 -0.29762,0.5642 -0.59467,1.01 -0.89114,1.3374 -0.29672,0.3275 -0.50488,0.5801 -0.62449,0.7579 -0.65317,0.6549 -1.32164,1.1605 -2.00542,1.5169 -0.684,0.3565 -1.02595,0.5348 -1.02583,0.5347 0.0597,10e-5 0.29738,0.059 0.71291,0.1783 0.4153,0.1188 0.93547,0.312 1.56053,0.5795 0.62481,0.2676 1.32367,0.6391 2.09657,1.1143 0.77266,0.4753 1.54544,1.0994 2.31834,1.8721 0.83071,0.8925 1.46925,1.7991 1.91563,2.7197 0.44612,0.9207 0.75814,1.7674 0.93604,2.5401 0.17765,0.7728 0.2815,1.4122 0.31156,1.9183 0.0298,0.5062 0.0448,0.7592 0.0449,0.7592 -1.3e-4,0 -0.0151,0.2377 -0.0449,0.7129 -0.0301,0.4753 -0.14888,1.0994 -0.35646,1.8721 -0.20783,0.7728 -0.54932,1.62 -1.02448,2.5415 -0.4754,0.9215 -1.18922,1.8576 -2.14147,2.8081 -1.12845,1.1882 -2.43592,2.0798 -3.9224,2.6748 -1.48672,0.595 -2.88353,1.0113 -4.19043,1.249 -1.30712,0.2376 -2.40643,0.3714 -3.29792,0.4013 -0.89171,0.03 -1.33751,0.045 -1.33739,0.045 l -16.9413,0 z m -17.47734,-8.8271 0,62.4155 66.33934,0 0,-62.4155 z m 25.59153,15.7821 5.2598,0 0.53605,0 c 0.29558,10e-5 0.53322,0.03 0.71292,0.09 1.06835,0 2.16766,0.2377 3.29792,0.7129 0.7128,0.2976 1.24794,0.625 1.60542,0.9823 0.1178,0.1778 0.25113,0.3561 0.39999,0.5347 0.14864,0.1787 0.28288,0.3869 0.40272,0.6244 0.17766,0.4155 0.29648,0.8014 0.35646,1.1578 0.0598,0.3565 0.1187,0.6536 0.17687,0.8912 l 0,0.536 0,0.1769 c -1.2e-4,0.1796 -0.0291,0.3284 -0.0871,0.4463 -1.1e-4,0.7147 -0.11893,1.3097 -0.35645,1.785 -0.11985,0.2975 -0.26905,0.5651 -0.44762,0.8027 -0.1788,0.2377 -0.38696,0.5052 -0.62448,0.8027 -0.65317,0.6531 -1.42595,1.0985 -2.31834,1.3361 -0.11802,0.06 -0.22142,0.1193 -0.3102,0.1782 -0.089,0.059 -0.19331,0.088 -0.31292,0.088 -0.59512,0.1198 -1.15974,0.2091 -1.69386,0.268 -0.53434,0.059 -0.98014,0.1184 -1.3374,0.1783 l -0.89251,0 -0.53332,0 -3.83397,0 z m 0,18.7263 7.66794,0 0.80271,0 c 0.47516,0 0.80169,0.029 0.97958,0.087 0.11961,0 0.29829,0.015 0.53605,0.045 0.23752,0.03 0.50509,0.075 0.80271,0.1347 0.47516,0.06 0.92051,0.1492 1.33604,0.268 0.4153,0.1189 0.77175,0.2372 1.06937,0.3551 0.29739,0.1796 0.54999,0.3289 0.75781,0.4476 0.2076,0.1189 0.4602,0.2373 0.75782,0.3551 l 0.62584,0.6259 c 0.23752,0.2957 0.35634,0.4435 0.35646,0.4435 0.47516,0.6549 0.77175,1.2798 0.88979,1.8748 0.1196,0.3556 0.17947,0.5932 0.17958,0.7129 l 0,0.4463 0,0.2666 0,0.4463 c -1.1e-4,0.2975 -0.0595,0.6689 -0.17822,1.1143 -0.11894,0.4453 -0.3271,0.9056 -0.62449,1.3809 -0.11803,0.1778 -0.23685,0.3411 -0.35645,0.4898 -0.11985,0.1488 -0.23867,0.3129 -0.35646,0.4925 -0.35749,0.3556 -0.77381,0.6522 -1.24897,0.8898 -0.47539,0.2376 -0.95067,0.4463 -1.42583,0.6258 -0.59512,0.2377 -1.16019,0.386 -1.69522,0.4449 -0.53525,0.059 -1.01053,0.1184 -1.42583,0.1783 -0.17789,0.06 -0.41553,0.09 -0.71292,0.09 l -0.44625,0 -0.44626,0 -7.8448,0 z m 51.00075,-34.5084 0,62.4155 66.24956,0 0,-62.4155 z"
         id="path2833" />
    </g>
  </g>
</svg>
